<?xml version="1.0" encoding="UTF-8" ?>
<svg version="1.1" width="256" height="348" xmlns="http://www.w3.org/2000/svg" shape-rendering="crispEdges">
<rect x="124" y="20" width="20" height="12" fill="#EEBE12" />
<rect x="120" y="24" width="4" height="4" fill="#EEBE12" />
<rect x="144" y="24" width="8" height="12" fill="#EEBE12" />
<rect x="44" y="28" width="4" height="4" fill="#EEBE12" />
<rect x="152" y="28" width="4" height="64" fill="#EEBE12" />
<rect x="48" y="32" width="8" height="4" fill="#EEBE12" />
<rect x="116" y="32" width="4" height="28" fill="#EEBE12" />
<rect x="124" y="32" width="4" height="4" fill="#EEBE12" />
<rect x="132" y="32" width="12" height="4" fill="#EEBE12" />
<rect x="156" y="32" width="4" height="64" fill="#EEBE12" />
<rect x="52" y="36" width="8" height="4" fill="#EEBE12" />
<rect x="120" y="36" width="4" height="28" fill="#EEBE12" />
<rect x="128" y="36" width="4" height="8" fill="#EEBE12" />
<rect x="136" y="36" width="12" height="4" fill="#EEBE12" />
<rect x="56" y="40" width="8" height="16" fill="#EEBE12" />
<rect x="140" y="40" width="12" height="4" fill="#EEBE12" />
<rect x="64" y="44" width="4" height="8" fill="#EEBE12" />
<rect x="112" y="44" width="4" height="8" fill="#EEBE12" />
<rect x="124" y="44" width="4" height="20" fill="#EEBE12" />
<rect x="132" y="44" width="8" height="4" fill="#EEBE12" />
<rect x="144" y="44" width="8" height="4" fill="#EEBE12" />
<rect x="160" y="44" width="4" height="52" fill="#EEBE12" />
<rect x="68" y="48" width="8" height="16" fill="#EEBE12" />
<rect x="128" y="48" width="4" height="20" fill="#EEBE12" />
<rect x="140" y="48" width="4" height="4" fill="#EEBE12" />
<rect x="148" y="48" width="4" height="4" fill="#EEBE12" />
<rect x="164" y="48" width="8" height="8" fill="#EEBE12" />
<rect x="52" y="52" width="4" height="4" fill="#EEBE12" />
<rect x="76" y="52" width="4" height="20" fill="#EEBE12" />
<rect x="132" y="52" width="8" height="20" fill="#EEBE12" />
<rect x="144" y="52" width="4" height="8" fill="#EEBE12" />
<rect x="64" y="56" width="4" height="4" fill="#EEBE12" />
<rect x="80" y="56" width="4" height="20" fill="#EEBE12" />
<rect x="140" y="56" width="4" height="8" fill="#EEBE12" />
<rect x="148" y="56" width="4" height="28" fill="#EEBE12" />
<rect x="164" y="56" width="4" height="36" fill="#EEBE12" />
<rect x="172" y="56" width="4" height="4" fill="#EEBE12" />
<rect x="84" y="60" width="8" height="16" fill="#EEBE12" />
<rect x="168" y="60" width="4" height="12" fill="#EEBE12" />
<rect x="72" y="64" width="4" height="4" fill="#EEBE12" />
<rect x="92" y="64" width="12" height="16" fill="#EEBE12" />
<rect x="144" y="64" width="4" height="20" fill="#EEBE12" />
<rect x="172" y="64" width="4" height="8" fill="#EEBE12" />
<rect x="104" y="68" width="16" height="12" fill="#EEBE12" />
<rect x="140" y="68" width="4" height="12" fill="#EEBE12" />
<rect x="176" y="68" width="4" height="8" fill="#EEBE12" />
<rect x="120" y="72" width="4" height="104" fill="#EEBE12" />
<rect x="136" y="72" width="4" height="8" fill="#EEBE12" />
<rect x="88" y="76" width="4" height="4" fill="#EEBE12" />
<rect x="124" y="76" width="8" height="104" fill="#EEBE12" />
<rect x="168" y="76" width="4" height="20" fill="#EEBE12" />
<rect x="96" y="80" width="20" height="4" fill="#EEBE12" />
<rect x="172" y="80" width="4" height="24" fill="#EEBE12" />
<rect x="100" y="84" width="16" height="4" fill="#EEBE12" />
<rect x="132" y="84" width="8" height="4" fill="#EEBE12" />
<rect x="104" y="88" width="8" height="4" fill="#EEBE12" />
<rect x="116" y="88" width="4" height="92" fill="#EEBE12" />
<rect x="132" y="88" width="4" height="4" fill="#EEBE12" />
<rect x="140" y="88" width="8" height="28" fill="#EEBE12" />
<rect x="176" y="88" width="4" height="8" fill="#EEBE12" />
<rect x="104" y="92" width="4" height="8" fill="#EEBE12" />
<rect x="112" y="92" width="4" height="124" fill="#EEBE12" />
<rect x="136" y="92" width="4" height="28" fill="#EEBE12" />
<rect x="132" y="96" width="4" height="20" fill="#EEBE12" />
<rect x="148" y="96" width="8" height="28" fill="#EEBE12" />
<rect x="180" y="96" width="4" height="4" fill="#EEBE12" />
<rect x="108" y="100" width="4" height="80" fill="#EEBE12" />
<rect x="156" y="100" width="8" height="32" fill="#EEBE12" />
<rect x="184" y="100" width="4" height="4" fill="#EEBE12" />
<rect x="164" y="108" width="4" height="32" fill="#EEBE12" />
<rect x="168" y="112" width="4" height="32" fill="#EEBE12" />
<rect x="104" y="116" width="4" height="60" fill="#EEBE12" />
<rect x="144" y="116" width="4" height="8" fill="#EEBE12" />
<rect x="132" y="120" width="4" height="60" fill="#EEBE12" />
<rect x="172" y="120" width="4" height="32" fill="#EEBE12" />
<rect x="136" y="124" width="4" height="56" fill="#EEBE12" />
<rect x="152" y="124" width="4" height="4" fill="#EEBE12" />
<rect x="176" y="124" width="4" height="32" fill="#EEBE12" />
<rect x="100" y="128" width="4" height="48" fill="#EEBE12" />
<rect x="140" y="128" width="4" height="56" fill="#EEBE12" />
<rect x="144" y="132" width="8" height="56" fill="#EEBE12" />
<rect x="160" y="132" width="4" height="4" fill="#EEBE12" />
<rect x="180" y="132" width="4" height="28" fill="#EEBE12" />
<rect x="152" y="136" width="4" height="56" fill="#EEBE12" />
<rect x="156" y="140" width="4" height="4" fill="#EEBE12" />
<rect x="184" y="140" width="4" height="28" fill="#EEBE12" />
<rect x="96" y="144" width="4" height="28" fill="#EEBE12" />
<rect x="156" y="148" width="8" height="40" fill="#EEBE12" />
<rect x="188" y="148" width="8" height="12" fill="#EEBE12" />
<rect x="164" y="152" width="4" height="36" fill="#EEBE12" />
<rect x="196" y="152" width="4" height="8" fill="#EEBE12" />
<rect x="168" y="156" width="4" height="40" fill="#EEBE12" />
<rect x="200" y="156" width="4" height="8" fill="#EEBE12" />
<rect x="172" y="160" width="4" height="32" fill="#EEBE12" />
<rect x="204" y="160" width="4" height="4" fill="#EEBE12" />
<rect x="92" y="168" width="4" height="4" fill="#EEBE12" />
<rect x="176" y="168" width="4" height="28" fill="#EEBE12" />
<rect x="180" y="172" width="4" height="20" fill="#EEBE12" />
<rect x="184" y="176" width="4" height="16" fill="#EEBE12" />
<rect x="116" y="184" width="24" height="12" fill="#EEBE12" />
<rect x="188" y="188" width="4" height="4" fill="#EEBE12" />
<rect x="144" y="192" width="8" height="32" fill="#EEBE12" />
<rect x="160" y="192" width="8" height="4" fill="#EEBE12" />
<rect x="120" y="196" width="20" height="8" fill="#EEBE12" />
<rect x="156" y="196" width="4" height="4" fill="#EEBE12" />
<rect x="120" y="204" width="16" height="20" fill="#EEBE12" />
<rect x="140" y="204" width="4" height="32" fill="#EEBE12" />
<rect x="116" y="216" width="4" height="16" fill="#EEBE12" />
<rect x="120" y="224" width="12" height="40" fill="#EEBE12" />
<rect x="136" y="224" width="4" height="60" fill="#EEBE12" />
<rect x="144" y="224" width="4" height="24" fill="#EEBE12" />
<rect x="132" y="228" width="4" height="72" fill="#EEBE12" />
<rect x="152" y="236" width="4" height="44" fill="#EEBE12" />
<rect x="156" y="240" width="4" height="44" fill="#EEBE12" />
<rect x="140" y="248" width="4" height="28" fill="#EEBE12" />
<rect x="160" y="248" width="4" height="4" fill="#EEBE12" />
<rect x="148" y="252" width="4" height="12" fill="#EEBE12" />
<rect x="164" y="252" width="4" height="4" fill="#EEBE12" />
<rect x="160" y="256" width="4" height="32" fill="#EEBE12" />
<rect x="168" y="256" width="4" height="8" fill="#EEBE12" />
<rect x="124" y="264" width="8" height="36" fill="#EEBE12" />
<rect x="144" y="264" width="4" height="20" fill="#EEBE12" />
<rect x="164" y="264" width="4" height="28" fill="#EEBE12" />
<rect x="172" y="264" width="4" height="8" fill="#EEBE12" />
<rect x="168" y="272" width="4" height="20" fill="#EEBE12" />
<rect x="176" y="272" width="4" height="56" fill="#EEBE12" />
<rect x="172" y="276" width="4" height="20" fill="#EEBE12" />
<rect x="180" y="280" width="4" height="20" fill="#EEBE12" />
<rect x="140" y="284" width="4" height="16" fill="#EEBE12" />
<rect x="184" y="284" width="4" height="40" fill="#EEBE12" />
<rect x="188" y="288" width="8" height="28" fill="#EEBE12" />
<rect x="196" y="292" width="4" height="20" fill="#EEBE12" />
<rect x="200" y="296" width="4" height="12" fill="#EEBE12" />
<rect x="128" y="300" width="4" height="8" fill="#EEBE12" />
<rect x="136" y="300" width="4" height="4" fill="#EEBE12" />
<rect x="140" y="304" width="4" height="20" fill="#EEBE12" />
<rect x="180" y="304" width="4" height="20" fill="#EEBE12" />
<rect x="120" y="308" width="8" height="20" fill="#EEBE12" />
<rect x="136" y="308" width="4" height="20" fill="#EEBE12" />
<rect x="144" y="308" width="4" height="16" fill="#EEBE12" />
<rect x="112" y="312" width="8" height="4" fill="#EEBE12" />
<rect x="128" y="312" width="8" height="16" fill="#EEBE12" />
<rect x="104" y="316" width="8" height="12" fill="#EEBE12" />
<rect x="116" y="316" width="4" height="4" fill="#EEBE12" />
<rect x="172" y="316" width="4" height="12" fill="#EEBE12" />
<rect x="188" y="316" width="4" height="4" fill="#EEBE12" />
<rect x="100" y="320" width="4" height="4" fill="#EEBE12" />
<rect x="112" y="320" width="4" height="8" fill="#EEBE12" />
<rect x="120" y="328" width="4" height="4" fill="#EEBE12" />
<rect x="124" y="332" width="4" height="4" fill="#EEBE12" />
<rect x="128" y="336" width="12" height="4" fill="#EEBE12" />
</svg>